# xmcd
# 
# Track frame offsets:
#     150
#     15647
#     42705
#     64060
# 
# Disc length: 1253
# 
# Revision: 0
# Processed by: cddbd v1.5.2PL0 Copyright (c) Steve Scherf et al.
# Submitted via: fre:ac v1.0.17
# 
DISCID=3104e304
DTITLE=Powderfinger - Living Type (Single)
DYEAR=1996
DGENRE=Alternative
TTITLE0=Living Type
TTITLE1=Entrees
TTITLE2=Mains
TTITLE3=Dessert
EXTD=
EXTT0=
EXTT1=
EXTT2=
EXTT3=
PLAYORDER=
